<svg xmlns="http://www.w3.org/2000/svg" id="Layer_1" x="0" y="0" version="1.1" viewBox="0 0 150 150" xml:space="preserve"><path fill="#efc84a" d="M11 11h128v128H11z"/><path fill="#231f20" d="M139 90.078L89.35 40.427l-1.96.17-1.98-1.97-.02-.02a.772.772 0 0 0-.41-.32c-6.43-2.15-14.09.24-18.18 5.64-2.02-1.34-4.94-.37-6.46 1.52-1.521 1.89-1.971 4.42-2.2 6.83-.23 2.29-.31 4.64.37 6.83.07.23.16.47.33.63l1.21 1.21c.05.21.1.43.15.66-.641.62-.73 2.08-.17 3.57.32.86.8 1.56 1.32 2.02h.01l2.03 2.03c.72 1.39 1.58 2.7 2.539 3.86v5.86l-14.12 4.06 2.02 2.02-4.9 2.42a15.23 15.23 0 0 0-8.28 11.3l-2.14 13.75L65.012 139H139V90.078z" opacity=".1"/><path fill="#1c75a1" d="M111.487 112.5H38.513l2.136-13.756a15.2 15.2 0 0 1 8.283-11.294L75 74.56l26.068 12.89a15.2 15.2 0 0 1 8.283 11.294l2.136 13.756z"/><path fill="#f6c358" d="M65.925 71.156h18.15v13.877h-18.15z"/><path fill="#44c4a1" d="M66.002 78.997l8.973 5.411a.05.05 0 0 1 .016.072l-6.076 8.718a.05.05 0 0 1-.09-.019L65.926 79.05a.05.05 0 0 1 .075-.053z"/><path fill="#44c4a1" d="M83.998 78.997l-8.973 5.411a.05.05 0 0 0-.016.072l6.076 8.718a.05.05 0 0 0 .09-.019l2.898-14.129a.05.05 0 0 0-.075-.053z"/><path fill="#e56353" d="M78.405 109.205l-2.096-18.6 1.309-2.418L75 84.408l-2.618 3.78 1.31 2.417-2.097 18.6 3.426 2.925z"/><path fill="#3a556a" d="M65.96 78.938l-14.153 4.073 9.978 6.007-8.858 4.785 22.094 18.327z"/><path fill="#3a556a" d="M84.083 78.938l14.152 4.073-9.978 6.007 8.858 4.785L75.02 112.13z"/><path fill="#fcd462" d="M89.433 61.363c-.246-.092-.515-.083-.791.007.092-.723.143-1.432.143-2.117 0-7.858-6.289-9.67-14.046-9.67-7.758 0-14.046 1.812-14.046 9.67 0 .668.049 1.36.137 2.063-.09.01-.179.016-.263.047-.954.36-1.194 2.068-.535 3.816.595 1.582 1.72 2.643 2.637 2.565 2.45 5.513 6.938 10.297 12.07 10.297 5.18 0 9.701-4.874 12.137-10.452.057.036.11.08.173.105.954.359 2.261-.767 2.92-2.515.658-1.748.418-3.456-.536-3.816z"/><path fill="#3a556a" d="M90.59 48.147c-.487-.763-1.132-1.594-.903-2.47.204-.783 1.08-1.372.974-2.174l-3.08-.192a16.374 16.374 0 0 0 1.767-2.888l-6.417.576 2.147-1.492c.233-.161.486-.351.4-.707a.748.748 0 0 0-.5-.514c-6.432-2.153-14.093.244-18.184 5.645-2.02-1.347-4.934-.374-6.455 1.517-1.521 1.892-1.966 4.414-2.204 6.83-.226 2.285-.307 4.638.372 6.83.089.288.214.6.485.73.27.132.687-.086.611-.377.214.377.398 1.222.6 2.147.107-.105.226-.193.364-.245.308-.115.908.002 1.45.68.186.231.121.97.52.9.223-.038-.076-.676-.167-1.159-.125-.658-.253-1.374-.137-1.655.344-.826 1.146-1.532 2.039-1.47.6-1.955-.8-4.278 1.197-5.899.508-.412 1.133-.658 1.78-.753 1.88-.275 3.595.501 5.358.974 2.978.8 6.173.73 9.138-.12 1.264-.362 2.762-.83 3.668.46.209.297.336.643.424.996.567 2.277.267 4.642.23 6.976-.017 1.065.049 2.156.25 3.204.054-.205.118-.411.196-.62.658-1.747 1.965-2.873 2.92-2.514.077.03.142.081.21.127.169-.322.335-.643.494-.965.957-1.936 1.68-4.014 1.853-6.167s-.238-4.39-1.4-6.21z"/></svg>